<?xml version="1.0" encoding="UTF-8"?>
<!-- Uploaded to: SVG Find, www.svgrepo.com, Generator: SVG Find Mixer Tools -->
<svg fill="#000000" width="800px" height="800px" version="1.1" viewBox="144 144 512 512" xmlns="http://www.w3.org/2000/svg">
 <path d="m604.67 400c0 8.3516-3.3164 16.359-9.2227 22.266-5.9062 5.9023-13.914 9.2227-22.266 9.2227h-346.37c-11.25 0-21.645-6.0039-27.27-15.746-5.625-9.7422-5.625-21.746 0-31.488 5.625-9.7422 16.02-15.742 27.27-15.742h346.37c8.3516 0 16.359 3.3164 22.266 9.2227 5.9062 5.9023 9.2227 13.914 9.2227 22.266zm-31.488 78.719h-346.37c-11.25 0-21.645 6-27.27 15.742-5.625 9.7461-5.625 21.746 0 31.488 5.625 9.7422 16.02 15.746 27.27 15.746h346.37c11.25 0 21.645-6.0039 27.27-15.746 5.625-9.7422 5.625-21.742 0-31.488-5.625-9.7422-16.02-15.742-27.27-15.742zm-346.37-157.44h346.37c11.25 0 21.645-6 27.27-15.742 5.625-9.7422 5.625-21.746 0-31.488s-16.02-15.746-27.27-15.746h-346.37c-11.25 0-21.645 6.0039-27.27 15.746s-5.625 21.746 0 31.488c5.625 9.7422 16.02 15.742 27.27 15.742z"/>
</svg>